<mxfile host="Electron" agent="Mozilla/5.0 (Windows NT 10.0; Win64; x64) AppleWebKit/537.36 (KHTML, like Gecko) draw.io/27.0.9 Chrome/134.0.6998.205 Electron/35.4.0 Safari/537.36" version="27.0.9">
  <diagram name="Page-1" id="QjPxDV6EFfYowPBXu3Lf">
    <mxGraphModel dx="3287" dy="1690" grid="1" gridSize="10" guides="1" tooltips="1" connect="1" arrows="1" fold="1" page="1" pageScale="1" pageWidth="850" pageHeight="1100" math="0" shadow="0">
      <root>
        <mxCell id="0" />
        <mxCell id="1" parent="0" />
        <mxCell id="iiTCv0NUq_GqP93d9ggd-3" value="" style="edgeStyle=orthogonalEdgeStyle;rounded=0;orthogonalLoop=1;jettySize=auto;html=1;fontFamily=Helvetica;fontSize=12;fontColor=default;" edge="1" parent="1" source="iiTCv0NUq_GqP93d9ggd-1" target="iiTCv0NUq_GqP93d9ggd-2">
          <mxGeometry relative="1" as="geometry" />
        </mxCell>
        <mxCell id="iiTCv0NUq_GqP93d9ggd-1" value="setEngineCapacity (driverCount, driverName[], driverAge, license[], engineCapacity[]" style="strokeWidth=2;html=1;shape=mxgraph.flowchart.terminator;whiteSpace=wrap;fillColor=#D80073;strokeColor=#A50040;" vertex="1" parent="1">
          <mxGeometry x="200" y="80" width="200" height="100" as="geometry" />
        </mxCell>
        <mxCell id="iiTCv0NUq_GqP93d9ggd-5" value="" style="edgeStyle=orthogonalEdgeStyle;rounded=0;orthogonalLoop=1;jettySize=auto;html=1;fontFamily=Helvetica;fontSize=12;fontColor=default;" edge="1" parent="1" source="iiTCv0NUq_GqP93d9ggd-2">
          <mxGeometry relative="1" as="geometry">
            <mxPoint x="599.7818181818184" y="325.1999999999998" as="sourcePoint" />
            <mxPoint x="680" y="325" as="targetPoint" />
          </mxGeometry>
        </mxCell>
        <mxCell id="iiTCv0NUq_GqP93d9ggd-6" value="True" style="edgeLabel;html=1;align=center;verticalAlign=middle;resizable=0;points=[];strokeColor=#A50040;strokeWidth=2;fontFamily=Helvetica;fontSize=12;fontColor=default;fillColor=#D80073;" vertex="1" connectable="0" parent="iiTCv0NUq_GqP93d9ggd-5">
          <mxGeometry x="-0.275" y="-3" relative="1" as="geometry">
            <mxPoint y="-3" as="offset" />
          </mxGeometry>
        </mxCell>
        <mxCell id="iiTCv0NUq_GqP93d9ggd-2" value="i = 0,&lt;div&gt;i &amp;lt; driverCount,&lt;/div&gt;&lt;div&gt;i++&lt;/div&gt;" style="rhombus;whiteSpace=wrap;html=1;fillColor=#0050ef;strokeColor=#001DBC;strokeWidth=2;fontColor=#ffffff;" vertex="1" parent="1">
          <mxGeometry x="240" y="270" width="120" height="110" as="geometry" />
        </mxCell>
        <mxCell id="iiTCv0NUq_GqP93d9ggd-13" value="" style="edgeStyle=orthogonalEdgeStyle;rounded=0;orthogonalLoop=1;jettySize=auto;html=1;fontFamily=Helvetica;fontSize=12;fontColor=default;" edge="1" parent="1" source="iiTCv0NUq_GqP93d9ggd-11" target="iiTCv0NUq_GqP93d9ggd-12">
          <mxGeometry relative="1" as="geometry" />
        </mxCell>
        <mxCell id="iiTCv0NUq_GqP93d9ggd-11" value="&lt;div&gt;Prompt:&lt;/div&gt;&quot;Driver : &quot;" style="shape=parallelogram;perimeter=parallelogramPerimeter;whiteSpace=wrap;html=1;fixedSize=1;strokeColor=#005700;strokeWidth=2;align=center;verticalAlign=middle;fontFamily=Helvetica;fontSize=12;fontColor=default;fillColor=#008A00;" vertex="1" parent="1">
          <mxGeometry x="670" y="295" width="290" height="60" as="geometry" />
        </mxCell>
        <mxCell id="iiTCv0NUq_GqP93d9ggd-15" value="" style="edgeStyle=orthogonalEdgeStyle;rounded=0;orthogonalLoop=1;jettySize=auto;html=1;fontFamily=Helvetica;fontSize=12;fontColor=default;" edge="1" parent="1" source="iiTCv0NUq_GqP93d9ggd-12" target="iiTCv0NUq_GqP93d9ggd-14">
          <mxGeometry relative="1" as="geometry" />
        </mxCell>
        <mxCell id="iiTCv0NUq_GqP93d9ggd-12" value="&lt;div&gt;Input:&lt;/div&gt;driverName[i]" style="shape=parallelogram;perimeter=parallelogramPerimeter;whiteSpace=wrap;html=1;fixedSize=1;strokeColor=#B09500;strokeWidth=2;align=center;verticalAlign=middle;fontFamily=Helvetica;fontSize=12;fontColor=default;fillColor=#E3C800;" vertex="1" parent="1">
          <mxGeometry x="755" y="385" width="120" height="60" as="geometry" />
        </mxCell>
        <mxCell id="iiTCv0NUq_GqP93d9ggd-17" value="" style="edgeStyle=orthogonalEdgeStyle;rounded=0;orthogonalLoop=1;jettySize=auto;html=1;fontFamily=Helvetica;fontSize=12;fontColor=default;" edge="1" parent="1" source="iiTCv0NUq_GqP93d9ggd-14" target="iiTCv0NUq_GqP93d9ggd-16">
          <mxGeometry relative="1" as="geometry" />
        </mxCell>
        <mxCell id="iiTCv0NUq_GqP93d9ggd-14" value="displayEngineCapacities (driverAge[i], license[i])" style="whiteSpace=wrap;html=1;fillColor=#FA6800;strokeColor=#C73500;strokeWidth=2;" vertex="1" parent="1">
          <mxGeometry x="655" y="475" width="320" height="60" as="geometry" />
        </mxCell>
        <mxCell id="iiTCv0NUq_GqP93d9ggd-19" value="" style="edgeStyle=orthogonalEdgeStyle;rounded=0;orthogonalLoop=1;jettySize=auto;html=1;fontFamily=Helvetica;fontSize=12;fontColor=default;" edge="1" parent="1" source="iiTCv0NUq_GqP93d9ggd-16" target="iiTCv0NUq_GqP93d9ggd-18">
          <mxGeometry relative="1" as="geometry" />
        </mxCell>
        <mxCell id="iiTCv0NUq_GqP93d9ggd-27" value="True" style="edgeLabel;html=1;align=center;verticalAlign=middle;resizable=0;points=[];strokeColor=#C73500;strokeWidth=2;fontFamily=Helvetica;fontSize=12;fontColor=default;fillColor=#FA6800;" vertex="1" connectable="0" parent="iiTCv0NUq_GqP93d9ggd-19">
          <mxGeometry x="-0.1282" relative="1" as="geometry">
            <mxPoint as="offset" />
          </mxGeometry>
        </mxCell>
        <mxCell id="iiTCv0NUq_GqP93d9ggd-29" value="" style="edgeStyle=orthogonalEdgeStyle;rounded=0;orthogonalLoop=1;jettySize=auto;html=1;fontFamily=Helvetica;fontSize=12;fontColor=default;" edge="1" parent="1" source="iiTCv0NUq_GqP93d9ggd-16" target="iiTCv0NUq_GqP93d9ggd-28">
          <mxGeometry relative="1" as="geometry" />
        </mxCell>
        <mxCell id="iiTCv0NUq_GqP93d9ggd-30" value="False" style="edgeLabel;html=1;align=center;verticalAlign=middle;resizable=0;points=[];strokeColor=#C73500;strokeWidth=2;fontFamily=Helvetica;fontSize=12;fontColor=default;fillColor=#FA6800;" vertex="1" connectable="0" parent="iiTCv0NUq_GqP93d9ggd-29">
          <mxGeometry x="-0.0833" relative="1" as="geometry">
            <mxPoint as="offset" />
          </mxGeometry>
        </mxCell>
        <mxCell id="iiTCv0NUq_GqP93d9ggd-16" value="driverAge[i] &amp;lt; 13" style="rhombus;whiteSpace=wrap;html=1;fillColor=#1BA1E2;strokeColor=#006EAF;strokeWidth=2;fontColor=#ffffff;" vertex="1" parent="1">
          <mxGeometry x="755" y="590" width="120" height="110" as="geometry" />
        </mxCell>
        <mxCell id="iiTCv0NUq_GqP93d9ggd-21" value="" style="edgeStyle=orthogonalEdgeStyle;rounded=0;orthogonalLoop=1;jettySize=auto;html=1;fontFamily=Helvetica;fontSize=12;fontColor=default;" edge="1" parent="1" source="iiTCv0NUq_GqP93d9ggd-18" target="iiTCv0NUq_GqP93d9ggd-20">
          <mxGeometry relative="1" as="geometry" />
        </mxCell>
        <mxCell id="iiTCv0NUq_GqP93d9ggd-18" value="&lt;div&gt;Display:&lt;/div&gt;&quot;Driver under 13: Go-Kart must be under 200cc&quot;" style="shape=parallelogram;perimeter=parallelogramPerimeter;whiteSpace=wrap;html=1;fixedSize=1;fillColor=#008a00;strokeColor=#005700;fontColor=#ffffff;strokeWidth=2;" vertex="1" parent="1">
          <mxGeometry x="1130" y="710" width="250" height="60" as="geometry" />
        </mxCell>
        <mxCell id="iiTCv0NUq_GqP93d9ggd-25" value="" style="edgeStyle=orthogonalEdgeStyle;rounded=0;orthogonalLoop=1;jettySize=auto;html=1;fontFamily=Helvetica;fontSize=12;fontColor=default;" edge="1" parent="1" source="iiTCv0NUq_GqP93d9ggd-20" target="iiTCv0NUq_GqP93d9ggd-24">
          <mxGeometry relative="1" as="geometry" />
        </mxCell>
        <mxCell id="iiTCv0NUq_GqP93d9ggd-20" value="&lt;div&gt;Display:&lt;/div&gt;&quot;Defaulting to 120cc&quot;" style="shape=parallelogram;perimeter=parallelogramPerimeter;whiteSpace=wrap;html=1;fixedSize=1;fillColor=#008a00;strokeColor=#005700;fontColor=#ffffff;strokeWidth=2;" vertex="1" parent="1">
          <mxGeometry x="1130" y="850" width="250" height="60" as="geometry" />
        </mxCell>
        <mxCell id="iiTCv0NUq_GqP93d9ggd-24" value="engineCapacity[i] = 1" style="whiteSpace=wrap;html=1;fillColor=#FA6800;strokeColor=#C73500;fontColor=default;strokeWidth=2;align=center;verticalAlign=middle;fontFamily=Helvetica;fontSize=12;" vertex="1" parent="1">
          <mxGeometry x="1140" y="990" width="230" height="60" as="geometry" />
        </mxCell>
        <mxCell id="iiTCv0NUq_GqP93d9ggd-34" value="" style="edgeStyle=orthogonalEdgeStyle;rounded=0;orthogonalLoop=1;jettySize=auto;html=1;fontFamily=Helvetica;fontSize=12;fontColor=default;" edge="1" parent="1" source="iiTCv0NUq_GqP93d9ggd-28" target="iiTCv0NUq_GqP93d9ggd-33">
          <mxGeometry relative="1" as="geometry" />
        </mxCell>
        <mxCell id="iiTCv0NUq_GqP93d9ggd-46" value="True" style="edgeLabel;html=1;align=center;verticalAlign=middle;resizable=0;points=[];strokeColor=#006EAF;strokeWidth=2;fontFamily=Helvetica;fontSize=12;fontColor=#ffffff;fillColor=#1BA1E2;" vertex="1" connectable="0" parent="iiTCv0NUq_GqP93d9ggd-34">
          <mxGeometry x="-0.4589" y="4" relative="1" as="geometry">
            <mxPoint x="1" y="4" as="offset" />
          </mxGeometry>
        </mxCell>
        <mxCell id="iiTCv0NUq_GqP93d9ggd-48" value="" style="edgeStyle=none;rounded=0;orthogonalLoop=1;jettySize=auto;html=1;fontFamily=Helvetica;fontSize=12;fontColor=#ffffff;exitX=0;exitY=0.5;exitDx=0;exitDy=0;" edge="1" parent="1" source="iiTCv0NUq_GqP93d9ggd-28" target="iiTCv0NUq_GqP93d9ggd-47">
          <mxGeometry relative="1" as="geometry">
            <mxPoint x="10" y="795" as="sourcePoint" />
          </mxGeometry>
        </mxCell>
        <mxCell id="iiTCv0NUq_GqP93d9ggd-49" value="False" style="edgeLabel;html=1;align=center;verticalAlign=middle;resizable=0;points=[];strokeColor=#006EAF;strokeWidth=2;fontFamily=Helvetica;fontSize=12;fontColor=#ffffff;fillColor=#1BA1E2;" vertex="1" connectable="0" parent="iiTCv0NUq_GqP93d9ggd-48">
          <mxGeometry x="-0.0626" y="-1" relative="1" as="geometry">
            <mxPoint y="1" as="offset" />
          </mxGeometry>
        </mxCell>
        <mxCell id="iiTCv0NUq_GqP93d9ggd-28" value="driverAge[i] &amp;gt; 13 &amp;amp;&amp;amp; license[i] == &#39;Y&#39;" style="rhombus;whiteSpace=wrap;html=1;fillColor=#1ba1e2;strokeColor=#006EAF;strokeWidth=2;fontColor=#ffffff;" vertex="1" parent="1">
          <mxGeometry x="150" y="720" width="155" height="150" as="geometry" />
        </mxCell>
        <mxCell id="iiTCv0NUq_GqP93d9ggd-36" value="" style="edgeStyle=orthogonalEdgeStyle;rounded=0;orthogonalLoop=1;jettySize=auto;html=1;fontFamily=Helvetica;fontSize=12;fontColor=default;" edge="1" parent="1" source="iiTCv0NUq_GqP93d9ggd-33" target="iiTCv0NUq_GqP93d9ggd-35">
          <mxGeometry relative="1" as="geometry" />
        </mxCell>
        <mxCell id="iiTCv0NUq_GqP93d9ggd-33" value="Prompt:&lt;div&gt;&quot;Choose your desired engine capacity (1 - 3): &quot;&lt;/div&gt;" style="shape=parallelogram;perimeter=parallelogramPerimeter;whiteSpace=wrap;html=1;fixedSize=1;fillColor=#008a00;strokeColor=#005700;fontColor=#ffffff;strokeWidth=2;align=center;verticalAlign=middle;fontFamily=Helvetica;fontSize=12;" vertex="1" parent="1">
          <mxGeometry x="390" y="890" width="297.5" height="60" as="geometry" />
        </mxCell>
        <mxCell id="iiTCv0NUq_GqP93d9ggd-38" value="" style="edgeStyle=orthogonalEdgeStyle;rounded=0;orthogonalLoop=1;jettySize=auto;html=1;fontFamily=Helvetica;fontSize=12;fontColor=#ffffff;" edge="1" parent="1" source="iiTCv0NUq_GqP93d9ggd-35" target="iiTCv0NUq_GqP93d9ggd-37">
          <mxGeometry relative="1" as="geometry" />
        </mxCell>
        <mxCell id="iiTCv0NUq_GqP93d9ggd-35" value="Input:&lt;div&gt;engineCapacity[i]&lt;/div&gt;" style="shape=parallelogram;perimeter=parallelogramPerimeter;whiteSpace=wrap;html=1;fixedSize=1;fillColor=#E3C800;strokeColor=#B09500;fontColor=default;strokeWidth=2;align=center;verticalAlign=middle;fontFamily=Helvetica;fontSize=12;" vertex="1" parent="1">
          <mxGeometry x="464.5" y="990" width="150" height="60" as="geometry" />
        </mxCell>
        <mxCell id="iiTCv0NUq_GqP93d9ggd-40" value="" style="edgeStyle=orthogonalEdgeStyle;rounded=0;orthogonalLoop=1;jettySize=auto;html=1;fontFamily=Helvetica;fontSize=12;fontColor=#ffffff;" edge="1" parent="1" source="iiTCv0NUq_GqP93d9ggd-37" target="iiTCv0NUq_GqP93d9ggd-39">
          <mxGeometry relative="1" as="geometry" />
        </mxCell>
        <mxCell id="iiTCv0NUq_GqP93d9ggd-37" value="cin.fail() || engineCapacity[i] &amp;lt; 1 || engineCapacity[i] &amp;gt; 3" style="rhombus;whiteSpace=wrap;html=1;fillColor=#0050ef;strokeColor=#001DBC;strokeWidth=2;fontColor=#ffffff;" vertex="1" parent="1">
          <mxGeometry x="428.75" y="1085" width="220" height="191" as="geometry" />
        </mxCell>
        <mxCell id="iiTCv0NUq_GqP93d9ggd-43" value="" style="edgeStyle=orthogonalEdgeStyle;rounded=0;orthogonalLoop=1;jettySize=auto;html=1;fontFamily=Helvetica;fontSize=12;fontColor=#ffffff;" edge="1" parent="1" source="iiTCv0NUq_GqP93d9ggd-39" target="iiTCv0NUq_GqP93d9ggd-42">
          <mxGeometry relative="1" as="geometry" />
        </mxCell>
        <mxCell id="iiTCv0NUq_GqP93d9ggd-39" value="Prompt:&lt;div&gt;&quot;Please enter a valid engine capacity (1 - 3): &quot;&lt;/div&gt;" style="shape=parallelogram;perimeter=parallelogramPerimeter;whiteSpace=wrap;html=1;fixedSize=1;fillColor=#008a00;strokeColor=#005700;fontColor=#ffffff;strokeWidth=2;" vertex="1" parent="1">
          <mxGeometry x="697.5" y="1150.5" width="290" height="60" as="geometry" />
        </mxCell>
        <mxCell id="iiTCv0NUq_GqP93d9ggd-45" style="edgeStyle=none;rounded=0;orthogonalLoop=1;jettySize=auto;html=1;exitX=0;exitY=0.5;exitDx=0;exitDy=0;fontFamily=Helvetica;fontSize=12;fontColor=#ffffff;entryX=1;entryY=1;entryDx=0;entryDy=0;" edge="1" parent="1" source="iiTCv0NUq_GqP93d9ggd-42" target="iiTCv0NUq_GqP93d9ggd-37">
          <mxGeometry relative="1" as="geometry">
            <mxPoint x="597.5" y="1280.3333333333333" as="targetPoint" />
            <Array as="points">
              <mxPoint x="697.5" y="1280" />
              <mxPoint x="593.5" y="1280" />
            </Array>
          </mxGeometry>
        </mxCell>
        <mxCell id="iiTCv0NUq_GqP93d9ggd-42" value="Input:&lt;div&gt;engineCapacity[i]&lt;/div&gt;" style="shape=parallelogram;perimeter=parallelogramPerimeter;whiteSpace=wrap;html=1;fixedSize=1;fillColor=#E3C800;strokeColor=#B09500;fontColor=default;strokeWidth=2;align=center;verticalAlign=middle;fontFamily=Helvetica;fontSize=12;" vertex="1" parent="1">
          <mxGeometry x="767.5" y="1250" width="150" height="60" as="geometry" />
        </mxCell>
        <mxCell id="iiTCv0NUq_GqP93d9ggd-51" value="" style="edgeStyle=none;rounded=0;orthogonalLoop=1;jettySize=auto;html=1;fontFamily=Helvetica;fontSize=12;fontColor=#ffffff;" edge="1" parent="1" source="iiTCv0NUq_GqP93d9ggd-47" target="iiTCv0NUq_GqP93d9ggd-50">
          <mxGeometry relative="1" as="geometry" />
        </mxCell>
        <mxCell id="iiTCv0NUq_GqP93d9ggd-47" value="engineCapacity[i]" style="whiteSpace=wrap;html=1;fillColor=#1ba1e2;strokeColor=#006EAF;fontColor=#ffffff;strokeWidth=2;" vertex="1" parent="1">
          <mxGeometry x="-240" y="765" width="120" height="60" as="geometry" />
        </mxCell>
        <mxCell id="iiTCv0NUq_GqP93d9ggd-53" value="" style="edgeStyle=none;rounded=0;orthogonalLoop=1;jettySize=auto;html=1;fontFamily=Helvetica;fontSize=12;fontColor=#ffffff;" edge="1" parent="1" source="iiTCv0NUq_GqP93d9ggd-50">
          <mxGeometry relative="1" as="geometry">
            <mxPoint x="-80" y="935" as="targetPoint" />
          </mxGeometry>
        </mxCell>
        <mxCell id="iiTCv0NUq_GqP93d9ggd-57" value="" style="edgeStyle=none;rounded=0;orthogonalLoop=1;jettySize=auto;html=1;fontFamily=Helvetica;fontSize=12;fontColor=#ffffff;" edge="1" parent="1" source="iiTCv0NUq_GqP93d9ggd-50" target="iiTCv0NUq_GqP93d9ggd-56">
          <mxGeometry relative="1" as="geometry" />
        </mxCell>
        <mxCell id="iiTCv0NUq_GqP93d9ggd-50" value="case 1" style="rhombus;whiteSpace=wrap;html=1;fillColor=#1ba1e2;strokeColor=#006EAF;fontColor=#ffffff;strokeWidth=2;" vertex="1" parent="1">
          <mxGeometry x="-220" y="895" width="80" height="80" as="geometry" />
        </mxCell>
        <mxCell id="iiTCv0NUq_GqP93d9ggd-66" style="edgeStyle=none;rounded=0;orthogonalLoop=1;jettySize=auto;html=1;exitX=1;exitY=0.5;exitDx=0;exitDy=0;fontFamily=Helvetica;fontSize=12;fontColor=#ffffff;" edge="1" parent="1" source="iiTCv0NUq_GqP93d9ggd-54">
          <mxGeometry relative="1" as="geometry">
            <mxPoint x="490" y="1500" as="targetPoint" />
            <Array as="points">
              <mxPoint x="240" y="935" />
              <mxPoint x="240" y="1220" />
              <mxPoint x="240" y="1500" />
            </Array>
          </mxGeometry>
        </mxCell>
        <mxCell id="iiTCv0NUq_GqP93d9ggd-54" value="&lt;span style=&quot;color: rgb(237, 237, 237);&quot;&gt;engineCapacity[i] = 120&lt;/span&gt;" style="whiteSpace=wrap;html=1;fillColor=#FA6800;strokeColor=#C73500;strokeWidth=2;" vertex="1" parent="1">
          <mxGeometry x="-80" y="905" width="210" height="60" as="geometry" />
        </mxCell>
        <mxCell id="iiTCv0NUq_GqP93d9ggd-59" value="" style="edgeStyle=none;rounded=0;orthogonalLoop=1;jettySize=auto;html=1;fontFamily=Helvetica;fontSize=12;fontColor=#ffffff;" edge="1" parent="1" source="iiTCv0NUq_GqP93d9ggd-56">
          <mxGeometry relative="1" as="geometry">
            <mxPoint x="-80" y="1095" as="targetPoint" />
          </mxGeometry>
        </mxCell>
        <mxCell id="iiTCv0NUq_GqP93d9ggd-56" value="case 2" style="rhombus;whiteSpace=wrap;html=1;fillColor=#1ba1e2;strokeColor=#006EAF;fontColor=#ffffff;strokeWidth=2;" vertex="1" parent="1">
          <mxGeometry x="-220" y="1055" width="80" height="80" as="geometry" />
        </mxCell>
        <mxCell id="iiTCv0NUq_GqP93d9ggd-69" style="edgeStyle=none;rounded=0;orthogonalLoop=1;jettySize=auto;html=1;exitX=1;exitY=0.5;exitDx=0;exitDy=0;fontFamily=Helvetica;fontSize=12;fontColor=#ffffff;" edge="1" parent="1" source="iiTCv0NUq_GqP93d9ggd-60">
          <mxGeometry relative="1" as="geometry">
            <mxPoint x="240" y="1094.5714285714287" as="targetPoint" />
          </mxGeometry>
        </mxCell>
        <mxCell id="iiTCv0NUq_GqP93d9ggd-60" value="&lt;span style=&quot;color: rgb(237, 237, 237);&quot;&gt;engineCapacity[i] = 200&lt;/span&gt;" style="whiteSpace=wrap;html=1;fillColor=#FA6800;strokeColor=#C73500;strokeWidth=2;" vertex="1" parent="1">
          <mxGeometry x="-78" y="1064" width="210" height="60" as="geometry" />
        </mxCell>
        <mxCell id="iiTCv0NUq_GqP93d9ggd-61" value="" style="edgeStyle=none;rounded=0;orthogonalLoop=1;jettySize=auto;html=1;fontFamily=Helvetica;fontSize=12;fontColor=#ffffff;" edge="1" parent="1" target="iiTCv0NUq_GqP93d9ggd-63">
          <mxGeometry relative="1" as="geometry">
            <mxPoint x="-180" y="1135" as="sourcePoint" />
          </mxGeometry>
        </mxCell>
        <mxCell id="iiTCv0NUq_GqP93d9ggd-62" value="" style="edgeStyle=none;rounded=0;orthogonalLoop=1;jettySize=auto;html=1;fontFamily=Helvetica;fontSize=12;fontColor=#ffffff;" edge="1" parent="1" source="iiTCv0NUq_GqP93d9ggd-63">
          <mxGeometry relative="1" as="geometry">
            <mxPoint x="-80" y="1255" as="targetPoint" />
          </mxGeometry>
        </mxCell>
        <mxCell id="iiTCv0NUq_GqP93d9ggd-63" value="default" style="rhombus;whiteSpace=wrap;html=1;fillColor=#1ba1e2;strokeColor=#006EAF;fontColor=#ffffff;strokeWidth=2;" vertex="1" parent="1">
          <mxGeometry x="-220" y="1215" width="80" height="80" as="geometry" />
        </mxCell>
        <mxCell id="iiTCv0NUq_GqP93d9ggd-68" style="edgeStyle=none;rounded=0;orthogonalLoop=1;jettySize=auto;html=1;exitX=1;exitY=0.5;exitDx=0;exitDy=0;fontFamily=Helvetica;fontSize=12;fontColor=#ffffff;" edge="1" parent="1" source="iiTCv0NUq_GqP93d9ggd-64">
          <mxGeometry relative="1" as="geometry">
            <mxPoint x="240" y="1254.5714285714287" as="targetPoint" />
          </mxGeometry>
        </mxCell>
        <mxCell id="iiTCv0NUq_GqP93d9ggd-64" value="&lt;span style=&quot;color: rgb(237, 237, 237);&quot;&gt;engineCapacity[i] = 270&lt;/span&gt;" style="whiteSpace=wrap;html=1;fillColor=#FA6800;strokeColor=#C73500;strokeWidth=2;" vertex="1" parent="1">
          <mxGeometry x="-78" y="1224" width="210" height="60" as="geometry" />
        </mxCell>
        <mxCell id="iiTCv0NUq_GqP93d9ggd-65" value="End" style="strokeWidth=2;html=1;shape=mxgraph.flowchart.terminator;whiteSpace=wrap;fillColor=#D80073;strokeColor=#A50040;" vertex="1" parent="1">
          <mxGeometry x="495" y="1480" width="90" height="45" as="geometry" />
        </mxCell>
        <mxCell id="iiTCv0NUq_GqP93d9ggd-72" style="edgeStyle=none;rounded=0;orthogonalLoop=1;jettySize=auto;html=1;exitX=0.5;exitY=1;exitDx=0;exitDy=0;entryX=0.5;entryY=0;entryDx=0;entryDy=0;entryPerimeter=0;fontFamily=Helvetica;fontSize=12;fontColor=#ffffff;" edge="1" parent="1" source="iiTCv0NUq_GqP93d9ggd-37" target="iiTCv0NUq_GqP93d9ggd-65">
          <mxGeometry relative="1" as="geometry" />
        </mxCell>
        <mxCell id="iiTCv0NUq_GqP93d9ggd-73" style="edgeStyle=none;rounded=0;orthogonalLoop=1;jettySize=auto;html=1;exitX=0.5;exitY=1;exitDx=0;exitDy=0;entryX=1;entryY=0.5;entryDx=0;entryDy=0;entryPerimeter=0;fontFamily=Helvetica;fontSize=12;fontColor=#ffffff;" edge="1" parent="1" source="iiTCv0NUq_GqP93d9ggd-24" target="iiTCv0NUq_GqP93d9ggd-65">
          <mxGeometry relative="1" as="geometry">
            <Array as="points">
              <mxPoint x="1250" y="1500" />
            </Array>
          </mxGeometry>
        </mxCell>
      </root>
    </mxGraphModel>
  </diagram>
</mxfile>
